<?xml version="1.0" ?><svg enable-background="new 0 0 512 512" id="Layer_1" version="1.1" viewBox="0 0 512 512" xml:space="preserve" xmlns="http://www.w3.org/2000/svg" xmlns:xlink="http://www.w3.org/1999/xlink"><g><g><linearGradient gradientUnits="userSpaceOnUse" id="SVGID_1_" x1="0.0000038" x2="512" y1="256" y2="256"><stop offset="0" style="stop-color:#A364AB"/><stop offset="1" style="stop-color:#8C3D96"/></linearGradient><circle cx="256" cy="256" fill="url(#SVGID_1_)" r="256"/><linearGradient gradientUnits="userSpaceOnUse" id="SVGID_2_" x1="42.6666679" x2="469.3333435" y1="256.0005188" y2="256.0005188"><stop offset="0" style="stop-color:#8C3D96"/><stop offset="1" style="stop-color:#A364AB"/></linearGradient><path d="M256,469.3338623c-117.6314697,0-213.3333282-95.7023926-213.3333282-213.3333435    c0-117.6314545,95.7018585-213.333313,213.3333282-213.333313c117.636261,0,213.3333435,95.7018661,213.3333435,213.333313    C469.3333435,373.6314697,373.636261,469.3338623,256,469.3338623z" fill="url(#SVGID_2_)"/></g><path d="M268.9989319,200.9429321v-21.7674713c0-3.4079895,2.2410583-6.1813354,5-6.1813354h26.6698608   c8.2714844,0,14.9994812-7.260788,14.9994812-16.1866608V144h-9.9993591v12.8074646   c0,3.4133301-2.2411804,6.1866608-5.0001221,6.1866608h-26.6698608c-8.2713318,0-15,7.2608032-15,16.1813354v21.7674713   H144.0005341v183.0565491H384V200.9429321H268.9989319z M250.4234619,230.7013397h24.153595v24.0453339h-24.153595V230.7013397z    M250.4234619,281.6170654h24.153595v24.0453491h-24.153595V281.6170654z M206.7045288,230.7013397h24.1537323v24.0453339   h-24.1537323V230.7013397z M206.7045288,281.6170654h24.1537323v24.0453491h-24.1537323V281.6170654z M187.13974,356.5776062   h-24.1541443v-24.0453491H187.13974V356.5776062z M187.13974,254.7466736h-24.1541443v-24.0453339H187.13974V254.7466736z    M318.29599,356.5776062H206.7045288v-24.0453491H318.29599V356.5776062z M318.29599,305.6624146h-24.1541138v-24.0453491   H318.29599V305.6624146z M318.29599,254.7466736h-24.1541138v-24.0453339H318.29599V254.7466736z M362.0149231,356.5776062   h-24.1539917v-24.0453491h24.1539917V356.5776062z M362.0149231,254.7466736h-24.1539917v-24.0453339h24.1539917V254.7466736z" opacity="0.3"/><path d="M260.9989319,192.9429321v-21.7674713c0-3.4079895,2.2410583-6.1813354,5-6.1813354h26.6698608   c8.2714844,0,14.9994812-7.260788,14.9994812-16.1866608V136h-9.9993591v12.8074646   c0,3.4133301-2.2411804,6.1866608-5.0001221,6.1866608h-26.6698608c-8.2713318,0-15,7.2608032-15,16.1813354v21.7674713   H136.0005341v183.0565491H376V192.9429321H260.9989319z M242.4234619,222.7013397h24.153595v24.0453339h-24.153595V222.7013397z    M242.4234619,273.6170654h24.153595v24.0453491h-24.153595V273.6170654z M198.7045288,222.7013397h24.1537323v24.0453339   h-24.1537323V222.7013397z M198.7045288,273.6170654h24.1537323v24.0453491h-24.1537323V273.6170654z M179.13974,348.5776062   h-24.1541443v-24.0453491H179.13974V348.5776062z M179.13974,246.7466736h-24.1541443v-24.0453339H179.13974V246.7466736z    M310.29599,348.5776062H198.7045288v-24.0453491H310.29599V348.5776062z M310.29599,297.6624146h-24.1541138v-24.0453491   H310.29599V297.6624146z M310.29599,246.7466736h-24.1541138v-24.0453339H310.29599V246.7466736z M354.0149231,348.5776062   h-24.1539917v-24.0453491h24.1539917V348.5776062z M354.0149231,246.7466736h-24.1539917v-24.0453339h24.1539917V246.7466736z" fill="#FFFFFF"/></g></svg>